<?xml version="1.0" encoding="UTF-8"?>
<svg height="100%" viewBox="0 0 266 80" version="1.1" xmlns="http://www.w3.org/2000/svg" xmlns:xlink="http://www.w3.org/1999/xlink">
    <title>Group</title>
    <g id="Page-1" stroke="none" stroke-width="1" fill="none" fill-rule="evenodd">
        <g id="Group">
            <g transform="translate(0.620099, 0.881332)">
                <path  d="M22.9257685,76.7869822 L22.9257685,33.4879723 L33.7001134,33.4879723 L33.7001134,22.1097545 L22.9257685,22.1097545 L22.9257685,18.2483684 C22.9257685,15.4681703 23.3789751,13.5889624 24.2853882,12.6107446 C25.1918014,11.6325268 26.6882382,11.1434179 28.7746986,11.1434179 C30.8953633,11.1434179 33.1015387,11.4180053 35.3932248,11.9671803 L35.3932248,11.9671803 L37.3428682,1.87609114 C33.4093771,0.640447577 29.3903755,0.0226257949 25.2858631,0.0226257949 C21.2839636,0.0226257949 17.9747005,0.734837016 15.3580739,2.15925946 C12.7414472,3.5836819 10.9457231,5.42856639 9.9709014,7.69391292 C8.99607972,9.95925946 8.50866888,13.3916027 8.50866888,17.9909426 L8.50866888,17.9909426 L8.50866888,22.1097545 L0.50486979,22.1097545 L0.50486979,33.4879723 L8.50866888,33.4879723 L8.50866888,76.7869822 L22.9257685,76.7869822 Z M58.1592218,78.0226258 C61.7506701,78.0226258 65.162546,77.1817017 68.3948495,75.4998535 C71.6271529,73.8180053 74.2352285,71.5183354 76.2190761,68.6008436 L76.2190761,68.6008436 L76.2190761,76.7869822 L89.6100477,76.7869822 L89.6100477,22.1097545 L75.192948,22.1097545 L75.192948,45.175101 C75.192948,53.0008436 74.8338032,57.9176753 74.1155136,59.9255961 C73.3972239,61.9335169 72.0632574,63.6153651 70.113614,64.9711406 C68.1639706,66.3269162 65.9577953,67.004804 63.4950878,67.004804 C61.3402189,67.004804 59.5615968,66.4985334 58.1592218,65.4859921 C56.7568467,64.4734509 55.7905761,63.1005136 55.2604099,61.3671803 C54.7302438,59.6338469 54.4651607,54.9229558 54.4651607,47.234507 L54.4651607,22.1097545 L40.048061,22.1097545 L40.048061,56.7077743 C40.048061,61.8562892 40.6979422,65.8892925 41.9977044,68.8067842 C43.2974666,71.724276 45.4010292,73.9896225 48.3083921,75.6028238 C51.2157551,77.2160251 54.4993649,78.0226258 58.1592218,78.0226258 Z M112.967551,76.7869822 L112.967551,52.0226258 C112.967551,45.9130548 113.335246,41.7255961 114.070638,39.4602496 C114.80603,37.194903 116.16565,35.3757611 118.149497,34.0028238 C120.133345,32.6298865 122.373725,31.9434179 124.870636,31.9434179 C126.82028,31.9434179 128.487738,32.4239459 129.873011,33.385002 C131.258284,34.3460581 132.258759,35.6932529 132.874435,37.4265862 C133.490112,39.1599195 133.797951,42.9784014 133.797951,48.8820317 L133.797951,76.7869822 L148.21505,76.7869822 L148.21505,42.8067842 C148.21505,38.585002 147.949967,35.3414377 147.419801,33.0760911 C146.889635,30.8107446 145.949017,28.7856621 144.597949,27.0008436 C143.24688,25.2160251 141.254481,23.7486984 138.620753,22.5988634 C135.987024,21.4490284 133.079661,20.8741109 129.898664,20.8741109 C122.681563,20.8741109 116.695816,23.9632199 111.941422,30.1414377 L111.941422,30.1414377 L111.941422,22.1097545 L98.5504509,22.1097545 L98.5504509,76.7869822 L112.967551,76.7869822 Z M180.869502,78.0226258 C187.881377,78.0226258 193.473775,76.3579393 197.646696,73.0285664 C201.819617,69.6991935 204.641469,64.7737809 206.112253,58.2523288 L206.112253,58.2523288 L191.951685,55.8325268 C191.233395,59.6424278 190.002042,62.3282364 188.257624,63.8899525 C186.513206,65.4516687 184.272827,66.2325268 181.536485,66.2325268 C177.876628,66.2325268 174.960714,64.8939129 172.788743,62.2166852 C170.616772,59.5394575 169.530786,54.9572793 169.530786,48.4701505 C169.530786,42.635167 170.59967,38.4734509 172.737437,35.985002 C174.875203,33.4965532 177.739811,32.2523288 181.331259,32.2523288 C184.033397,32.2523288 186.231021,32.9731208 187.924132,34.414705 C189.617244,35.8562892 190.703235,38.0015037 191.182089,40.8503486 L191.182089,40.8503486 L205.393963,38.2760911 C203.68375,32.4067842 200.870448,28.0391274 196.954059,25.1731208 C193.037671,22.3071142 187.761662,20.8741109 181.126034,20.8741109 C173.019622,20.8741109 166.589219,23.3883024 161.834826,28.4166852 C157.080432,33.445068 154.703235,40.4727908 154.703235,49.4998535 C154.703235,58.4239459 157.071881,65.4087644 161.809172,70.454309 C166.546464,75.4998535 172.899907,78.0226258 180.869502,78.0226258 Z M230.114848,78.0226258 C234.356177,78.0226258 238.152851,77.3018337 241.50487,75.8602496 L241.50487,75.8602496 L240.273516,64.6364872 C237.7424,65.5632199 235.809859,66.0265862 234.475892,66.0265862 C233.518173,66.0265862 232.705821,65.7863222 232.038838,65.3057941 C231.371855,64.8252661 230.944302,64.2160251 230.756178,63.4780713 C230.572379,62.757082 230.478367,60.2586737 230.474142,55.9828465 L230.473993,33.6424278 L240.324822,33.6424278 L240.324822,22.1097545 L230.473993,22.1097545 L230.473993,2.80282381 L216.005587,11.2463882 L216.005587,22.1097545 L209.387061,22.1097545 L209.387061,33.6424278 L216.005587,33.6424278 L216.005655,57.6663904 C216.009364,62.6768663 216.16326,66.0127731 216.467344,67.6741109 C216.843591,70.0424278 217.519126,71.9216357 218.493947,73.3117347 C219.468769,74.7018337 220.99941,75.834507 223.085871,76.7097545 C225.172331,77.585002 227.515324,78.0226258 230.114848,78.0226258 Z" id="funct" fill="currentColor" fill-rule="nonzero"></path>
                <path d="M254.351769,22.7138572 C256.170192,22.7138572 257.912074,22.2522933 259.577415,21.3291654 C261.242757,20.4060375 262.536991,19.1094835 263.460119,17.4395034 C264.383247,15.7695232 264.844811,14.0299606 264.844811,12.2208155 C264.844811,10.393115 264.376289,8.63731649 263.439244,6.95341987 C262.5022,5.26952325 261.194049,3.97528866 259.514791,3.07071609 C257.835533,2.16614353 256.114526,1.71385724 254.351769,1.71385724 C252.589012,1.71385724 250.868005,2.16614353 249.188747,3.07071609 C247.50949,3.97528866 246.199019,5.26952325 245.257336,6.95341987 C244.315653,8.63731649 243.844811,10.393115 243.844811,12.2208155 C243.844811,14.0299606 244.308694,15.7695232 245.236461,17.4395034 C246.164228,19.1094835 247.460782,20.4060375 249.126123,21.3291654 C250.791464,22.2522933 252.533346,22.7138572 254.351769,22.7138572 Z M254.351769,20.9742946 C252.83951,20.9742946 251.387555,20.586952 249.995904,19.8122668 C248.604254,19.0375816 247.521087,17.9567333 246.746401,16.5697221 C245.971716,15.1827108 245.584374,13.7330753 245.584374,12.2208155 C245.584374,10.6992781 245.978675,9.23572603 246.767276,7.83015943 C247.555878,6.42459283 248.648323,5.34374459 250.044612,4.5876147 C251.440901,3.83148481 252.87662,3.45341987 254.351769,3.45341987 C255.817641,3.45341987 257.25104,3.83148481 258.651968,4.5876147 C260.052896,5.34374459 261.145341,6.42459283 261.929304,7.83015943 C262.713267,9.23572603 263.105248,10.6992781 263.105248,12.2208155 C263.105248,13.7330753 262.720225,15.1827108 261.950179,16.5697221 C261.180132,17.9567333 260.099284,19.0375816 258.707634,19.8122668 C257.315984,20.586952 255.864029,20.9742946 254.351769,20.9742946 Z M251.568469,18.0239964 L251.568469,13.2228036 L252.64004,13.2228036 C253.280199,13.2228036 253.767276,13.3526909 254.101272,13.6124656 C254.583711,13.965017 255.219231,14.8417565 256.007833,16.2426843 L256.007833,16.2426843 L257.009821,18.0239964 L259.236461,18.0239964 L257.858728,15.8112728 C257.200013,14.7628963 256.643353,14.0160441 256.188747,13.5707161 C255.947528,13.3387744 255.627449,13.1393046 255.228509,12.9723065 C256.202664,12.8980852 256.984307,12.5548115 257.573439,11.9424855 C258.162571,11.3301594 258.457137,10.6111402 258.457137,9.78542782 C258.457137,9.20093478 258.280861,8.64891357 257.92831,8.1293642 C257.575759,7.60981483 257.102598,7.24566639 256.508827,7.03691887 C255.915056,6.82817136 254.954818,6.7237976 253.628111,6.7237976 L253.628111,6.7237976 L249.745407,6.7237976 L249.745407,18.0239964 L251.568469,18.0239964 Z M253.781193,11.6641555 L251.568469,11.6641555 L251.568469,8.25461271 L253.642028,8.25461271 C254.532684,8.25461271 255.14269,8.31955638 255.472048,8.44944373 C255.801405,8.57933107 256.05886,8.7764815 256.244413,9.04089502 C256.429967,9.30530854 256.522743,9.60451331 256.522743,9.93850933 C256.522743,10.4580587 256.330232,10.8755537 255.945209,11.1909944 C255.560185,11.5064351 254.838847,11.6641555 253.781193,11.6641555 L253.781193,11.6641555 Z" id="®" fill="currentColor" fill-rule="nonzero"></path>
            </g>
        </g>
    </g>
</svg>
