<svg width="auto" height="100%" viewBox="0 0 238 134" fill="none" xmlns="http://www.w3.org/2000/svg">
<path d="M22.4583 89.8914C34.8616 89.8914 44.9164 79.8325 44.9164 67.4243C44.9164 55.0161 34.8616 44.9573 22.4583 44.9573C10.0549 44.9573 0 55.0161 0 67.4243C0 79.8325 10.0549 89.8914 22.4583 89.8914Z" fill="#00E7C3"/>
<path d="M35.5305 95.059C41.6195 106.234 51.6815 110.629 62.1325 110.629C78.9025 110.629 99.4465 82.427 112.604 59.599C129.634 30.029 148.55 0 175.932 0C196.865 0 217.798 13.002 226.502 38.707C222.825 37.2218 218.896 36.4622 214.932 36.47C210.387 36.4637 205.898 37.4629 201.786 39.396C195.836 26.803 185.256 21.92 174.225 21.92C157.445 21.92 141.831 42.442 124.113 72.021C105.096 103.758 87.8075 132.548 60.4165 132.548C40.2315 132.548 20.0475 120.455 10.8335 96.548C10.9435 96.578 11.0935 96.608 11.2735 96.628C14.5789 97.7948 18.0592 98.389 21.5645 98.385C26.5855 98.385 31.3375 97.187 35.5305 95.059Z" fill="#00E7C3"/>
<path d="M12.3115 37.878C21.1055 12.723 41.6495 0 62.1925 0C89.3645 0 107.263 27.542 127.498 54.935C142.731 75.576 159.82 102.959 176.471 102.959C186.563 102.959 189.568 100.881 196.915 92.603C202.167 96.3693 208.469 98.3917 214.933 98.385C218.546 98.385 222.02 97.765 225.254 96.627C225.574 96.617 225.824 96.597 225.994 96.547C216.839 120.455 194.359 133.637 174.334 133.637C147.163 133.637 128.905 106.494 109.769 79.421C89.9135 51.32 75.0505 30.149 58.4095 29.59C50.8725 29.34 43.9555 33.914 38.5545 41.553C33.5125 38.2287 27.6039 36.461 21.5645 36.47C18.3405 36.47 15.2365 36.96 12.3115 37.878Z" fill="#00E7C3"/>
<path d="M214.926 89.8914C227.33 89.8914 237.384 79.8325 237.384 67.4243C237.384 55.0161 227.33 44.9573 214.926 44.9573C202.523 44.9573 192.468 55.0161 192.468 67.4243C192.468 79.8325 202.523 89.8914 214.926 89.8914Z" fill="#00E7C3"/>
</svg>
