<svg width="100%" height="auto" viewBox="0 0 28 28" fill="none" xmlns="http://www.w3.org/2000/svg">
<g id="Sass icon">
<path id="Vector" d="M24.1102 16.0961C23.1334 16.1029 22.2844 16.4166 21.5735 16.8804C21.3127 16.1916 21.0518 15.5778 21.0058 15.1277C20.9547 14.6026 20.8933 14.2821 20.9547 13.6547C21.016 13.0273 21.2922 12.1339 21.2871 12.0657C21.282 11.9975 21.2257 11.677 20.6631 11.6702C20.1006 11.6634 19.6147 11.8134 19.5585 12.0112C19.5022 12.2089 19.3948 12.659 19.3232 13.1228C19.226 13.8047 18.1981 16.2393 17.6099 17.5146C17.4207 17.0168 17.257 16.5803 17.2212 16.2325C17.1701 15.7074 17.1087 15.3869 17.1701 14.7595C17.2314 14.1321 17.5076 13.2387 17.5025 13.1705C17.4974 13.1023 17.4411 12.7818 16.8786 12.775C16.316 12.7681 15.8301 12.9182 15.7739 13.1159C15.7176 13.3137 15.6562 13.7774 15.5386 14.2275C15.421 14.6776 14.0555 18.7421 13.6975 19.7923C13.5133 20.3311 13.3548 20.7607 13.2423 21.054C13.2423 21.054 13.2372 21.0744 13.2218 21.1085C13.1247 21.3609 13.0684 21.4972 13.0684 21.4972C13.0684 21.4972 13.0684 21.4972 13.0684 21.5041C12.9917 21.6882 12.9099 21.8587 12.8689 21.8587C12.8383 21.8587 12.782 21.3677 12.8792 20.6993C13.0837 19.2877 13.5696 17.0918 13.5645 17.0168C13.5645 16.9758 13.6565 16.5939 13.2474 16.3962C12.8485 16.1984 12.7053 16.5257 12.6695 16.5257C12.6337 16.5257 12.6081 16.6417 12.6081 16.6417C12.6081 16.6417 13.0531 14.173 11.7591 14.173C10.9511 14.173 9.83616 15.3528 9.28381 16.4166C8.93604 16.669 8.19446 17.2077 7.40175 17.7874C7.1 18.0124 6.78803 18.2375 6.49651 18.4489C6.47606 18.4216 6.4556 18.3875 6.43514 18.3602C4.87016 16.1302 1.97546 14.5549 2.09821 11.5611C2.14424 10.4699 2.42552 7.60568 7.65746 4.12767C11.9637 1.29753 15.3903 2.08178 15.9836 3.82079C16.8325 6.30313 14.1475 10.9132 9.69807 11.5815C8.00012 11.8338 7.11023 10.9609 6.8852 10.6336C6.64994 10.2926 6.61414 10.2721 6.5272 10.3403C6.384 10.4426 6.47606 10.7495 6.5272 10.9268C6.66017 11.3906 7.2074 12.2089 8.13309 12.6113C8.95138 12.9659 10.9408 13.1637 13.3497 11.9225C16.0449 10.5313 18.152 6.66457 17.5332 3.42525C16.9144 0.138191 12.8229 -0.946129 8.95138 0.88835C6.64994 1.97949 4.15416 3.69803 2.35904 5.93487C0.22637 8.59452 -0.111174 10.9064 0.0269125 11.8748C0.523 15.3118 4.07745 17.5487 5.49922 19.2059C5.42762 19.2604 5.36114 19.3081 5.30488 19.3491C4.59399 19.8196 1.88341 21.7087 1.20832 23.7068C0.441172 25.9709 1.33106 27.594 1.91921 27.8122C3.74501 28.4874 5.62197 27.2735 6.62949 25.2685C7.637 23.2635 7.51426 20.6584 7.04886 19.465C7.04374 19.4514 7.03863 19.4377 7.0284 19.4241C7.21252 19.2809 7.40175 19.1308 7.58586 18.9876C7.94898 18.7012 8.30698 18.4352 8.61384 18.217C8.43995 18.8512 8.31209 19.6082 8.25072 20.6993C8.17401 21.9814 8.56781 23.6454 9.08435 24.3001C9.3145 24.5865 9.58556 24.5934 9.75944 24.5934C10.3629 24.5934 10.634 23.925 10.9357 23.134C11.304 22.1656 11.6364 21.0403 11.6364 21.0403C11.6364 21.0403 11.2221 24.0819 12.3473 24.0819C12.7564 24.0819 13.1707 23.3726 13.3548 23.0112C13.3548 23.018 13.3548 23.018 13.3548 23.018C13.3548 23.018 13.365 22.9976 13.3855 22.9498C13.4264 22.8612 13.452 22.8066 13.452 22.8066C13.452 22.8066 13.452 22.7998 13.452 22.793C13.6156 22.4111 13.9839 21.545 14.5311 20.106C15.2369 18.2511 15.9171 15.9324 15.9171 15.9324C15.9171 15.9324 15.9784 16.4985 16.1881 17.4396C16.3109 17.992 16.5666 18.5989 16.7712 19.1854C16.6075 19.4923 16.5052 19.6628 16.5052 19.6628C16.5052 19.6628 16.5052 19.6628 16.5103 19.6696C16.3774 19.9015 16.2342 20.1538 16.0756 20.3993C15.5182 21.2858 14.8533 22.302 14.7612 22.5952C14.6538 22.943 14.6794 23.1953 14.884 23.3999C15.0323 23.55 15.2982 23.5704 15.5693 23.5499C16.0705 23.5022 16.4234 23.3385 16.5973 23.2362C16.8683 23.1067 17.1854 22.9089 17.482 22.6157C18.0293 22.0769 18.3617 21.3063 18.331 20.2902C18.3157 19.731 18.1776 19.1718 18.0088 18.6466C18.06 18.5512 18.106 18.4557 18.1571 18.3602C19.0215 16.6758 19.6914 14.8277 19.6914 14.8277C19.6914 14.8277 19.7528 15.3937 19.9625 16.3348C20.0648 16.8122 20.2745 17.3305 20.4586 17.8351C19.6454 18.7148 19.1442 19.7378 18.9652 20.4061C18.643 21.6473 18.8936 22.2065 19.3692 22.3361C19.584 22.3974 19.8909 22.261 20.1159 22.1315C20.4023 22.0087 20.7399 21.7973 21.0621 21.4836C21.6093 20.9449 22.1361 20.1947 22.1054 19.1786C22.09 18.7148 21.998 18.2579 21.8701 17.8146C22.5606 17.4328 23.4504 17.2213 24.5858 17.3987C27.0202 17.7806 27.501 19.806 27.4089 20.6584C27.3169 21.5109 26.8054 21.9746 26.6367 22.1178C26.4679 22.261 26.4116 22.3088 26.427 22.4111C26.4474 22.5611 26.5293 22.5543 26.6725 22.527C26.8719 22.4793 27.951 21.8382 27.9971 20.2697C28.0738 18.2647 26.6418 16.0756 24.1102 16.0961ZM5.33045 24.5388C4.52239 25.7118 3.39724 26.155 2.91138 25.78C2.38972 25.3776 2.5943 23.6454 3.58647 22.4043C4.18996 21.6473 4.96733 20.9449 5.48388 20.5152C5.60151 20.4197 5.7754 20.2834 5.98508 20.1129C6.02088 20.0856 6.04134 20.0719 6.04134 20.0719C6.08225 20.0378 6.12317 20.0037 6.16408 19.9696C6.5272 21.7428 6.17943 23.3044 5.33045 24.5388ZM11.2119 19.2059C10.9306 20.1197 10.3425 22.4588 9.98447 22.3292C9.67761 22.2201 9.48838 20.447 9.9231 18.6944C10.143 17.8146 10.6084 16.7644 10.8795 16.3553C11.3193 15.7006 11.8052 15.4823 11.9228 15.7483C12.0711 16.0961 11.3858 18.633 11.2119 19.2059ZM16.0654 22.302C15.9478 22.3838 15.8352 22.4384 15.7841 22.3974C15.7483 22.3702 15.8352 22.261 15.8352 22.261C15.8352 22.261 16.4438 21.3881 16.6842 20.9926C16.8223 20.7607 16.986 20.4879 17.1598 20.1811C17.1598 20.2083 17.1598 20.2424 17.1598 20.2697C17.1598 21.3131 16.4029 22.0155 16.0654 22.302ZM19.8091 21.1631C19.7221 21.0812 19.7375 20.8085 20.029 19.956C20.1415 19.6218 20.4074 19.0626 20.8626 18.5239C20.9137 18.7421 20.9495 18.9535 20.9444 19.1513C20.9393 20.4675 20.2335 20.9585 19.8091 21.1631Z" fill="#CD6799"/>
</g>
</svg>
