<svg width="100%" height="auto" viewBox="0 0 28 28" fill="none" xmlns="http://www.w3.org/2000/svg">
<g id="tailwind icon">
<path id="Vector" d="M13.706 6.34198C9.18401 6.4857 7.84001 9.71598 7.53201 11.466C7.93334 10.8173 9.19801 9.39401 11.06 9.39401C13.23 9.39401 14.882 11.816 15.89 12.572C17.1146 13.4905 19.5755 14.7032 22.806 13.72C25.382 12.936 26.5767 10.2013 26.838 8.90398C25.592 10.598 23.702 11.6155 21.364 10.416C19.754 9.58998 18.55 6.18801 13.706 6.34198Z" fill="#07B6D5"/>
<path id="Vector_2" d="M7.308 14.028C2.786 14.1717 1.442 17.402 1.134 19.152C1.53534 18.5033 2.8 17.08 4.662 17.08C6.832 17.08 8.484 19.502 9.492 20.258C10.7166 21.1765 13.1774 22.3893 16.408 21.406C18.984 20.622 20.1787 17.8873 20.44 16.59C19.194 18.284 17.304 19.3015 14.966 18.102C13.356 17.276 12.152 13.874 7.308 14.028Z" fill="#07B6D5"/>
</g>
</svg>
