
<svg width="23" height="23" viewBox="0 0 23 23" fill="none" xmlns="http://www.w3.org/2000/svg">
    <path d="M20 6.79703L11.5241 11.4957C11.5168 11.5 11.5085 11.5022 11.5001 11.5022C11.4916 11.5022 11.4833 11.5 11.476 11.4957L3.00014 6.79845M11.5001 11.5V21M11.5001 21C11.504 21 11.5079 20.999 11.5114 20.9971L19.9858 16.2571V16.26C19.9904 16.2572 19.9941 16.2532 19.9966 16.2484C19.9991 16.2436 20.0002 16.2383 20 16.2329V6.80986C20 6.79845 19.9943 6.78848 19.9858 6.78278L11.5114 2.00285C11.5079 2.00098 11.504 2 11.5001 2C11.4961 2 11.4922 2.00098 11.4887 2.00285L3.01431 6.78135C3.00581 6.78705 3.00014 6.79703 3.00014 6.80843V16.2315C2.9996 16.2371 3.00063 16.2427 3.00314 16.2478C3.00565 16.2528 3.00952 16.257 3.01431 16.26L11.4887 20.9971C11.4922 20.999 11.4961 21 11.5001 21Z" stroke="currentColor" stroke-linejoin="round"/>
</svg>
