<svg id="visual" viewBox="0 0 600 900" width="600" height="900" xmlns="http://www.w3.org/2000/svg" xmlns:xlink="http://www.w3.org/1999/xlink" version="1.1"><path d="M302 900L287.8 878.5C273.7 857 245.3 814 233.3 771.2C221.3 728.3 225.7 685.7 237.3 642.8C249 600 268 557 287.7 514.2C307.3 471.3 327.7 428.7 336.7 385.8C345.7 343 343.3 300 329.5 257.2C315.7 214.3 290.3 171.7 275.7 128.8C261 86 257 43 255 21.5L253 0L600 0L600 21.5C600 43 600 86 600 128.8C600 171.7 600 214.3 600 257.2C600 300 600 343 600 385.8C600 428.7 600 471.3 600 514.2C600 557 600 600 600 642.8C600 685.7 600 728.3 600 771.2C600 814 600 857 600 878.5L600 900Z" fill="#ff00aa"></path><path d="M389 900L385 878.5C381 857 373 814 361.8 771.2C350.7 728.3 336.3 685.7 338.2 642.8C340 600 358 557 350.2 514.2C342.3 471.3 308.7 428.7 308.8 385.8C309 343 343 300 361.7 257.2C380.3 214.3 383.7 171.7 371 128.8C358.3 86 329.7 43 315.3 21.5L301 0L600 0L600 21.5C600 43 600 86 600 128.8C600 171.7 600 214.3 600 257.2C600 300 600 343 600 385.8C600 428.7 600 471.3 600 514.2C600 557 600 600 600 642.8C600 685.7 600 728.3 600 771.2C600 814 600 857 600 878.5L600 900Z" fill="#bd2180"></path><path d="M345 900L354.2 878.5C363.3 857 381.7 814 396.3 771.2C411 728.3 422 685.7 429.8 642.8C437.7 600 442.3 557 441 514.2C439.7 471.3 432.3 428.7 424.2 385.8C416 343 407 300 405 257.2C403 214.3 408 171.7 408.5 128.8C409 86 405 43 403 21.5L401 0L600 0L600 21.5C600 43 600 86 600 128.8C600 171.7 600 214.3 600 257.2C600 300 600 343 600 385.8C600 428.7 600 471.3 600 514.2C600 557 600 600 600 642.8C600 685.7 600 728.3 600 771.2C600 814 600 857 600 878.5L600 900Z" fill="#7f2458"></path><path d="M440 900L443.3 878.5C446.7 857 453.3 814 450.8 771.2C448.3 728.3 436.7 685.7 431.3 642.8C426 600 427 557 430.2 514.2C433.3 471.3 438.7 428.7 452 385.8C465.3 343 486.7 300 489.2 257.2C491.7 214.3 475.3 171.7 463.2 128.8C451 86 443 43 439 21.5L435 0L600 0L600 21.5C600 43 600 86 600 128.8C600 171.7 600 214.3 600 257.2C600 300 600 343 600 385.8C600 428.7 600 471.3 600 514.2C600 557 600 600 600 642.8C600 685.7 600 728.3 600 771.2C600 814 600 857 600 878.5L600 900Z" fill="#461e33"></path><path d="M515 900L518.2 878.5C521.3 857 527.7 814 533.8 771.2C540 728.3 546 685.7 540 642.8C534 600 516 557 507.7 514.2C499.3 471.3 500.7 428.7 501 385.8C501.3 343 500.7 300 504.2 257.2C507.7 214.3 515.3 171.7 524.5 128.8C533.7 86 544.3 43 549.7 21.5L555 0L600 0L600 21.5C600 43 600 86 600 128.8C600 171.7 600 214.3 600 257.2C600 300 600 343 600 385.8C600 428.7 600 471.3 600 514.2C600 557 600 600 600 642.8C600 685.7 600 728.3 600 771.2C600 814 600 857 600 878.5L600 900Z" fill="#111111"></path></svg>